<svg xmlns="http://www.w3.org/2000/svg" xmlns:xlink="http://www.w3.org/1999/xlink" fill="none" height="48" viewBox="4 3 40 40" width="48"><filter id="a" color-interpolation-filters="sRGB" filterUnits="userSpaceOnUse" height="47.4" width="50.4" x=".8" y="0"><feFlood flood-opacity="0" result="BackgroundImageFix"/><feColorMatrix in="SourceAlpha" result="hardAlpha" type="matrix" values="0 0 0 0 0 0 0 0 0 0 0 0 0 0 0 0 0 0 127 0"/><feOffset dy="3.2"/><feGaussianBlur stdDeviation="3.6"/><feColorMatrix type="matrix" values="0 0 0 0 0 0 0 0 0 0 0 0 0 0 0 0 0 0 0.13 0"/><feBlend in2="BackgroundImageFix" mode="normal" result="effect1_dropShadow_8358_225748"/><feColorMatrix in="SourceAlpha" result="hardAlpha" type="matrix" values="0 0 0 0 0 0 0 0 0 0 0 0 0 0 0 0 0 0 127 0"/><feOffset dy=".6"/><feGaussianBlur stdDeviation=".9"/><feColorMatrix type="matrix" values="0 0 0 0 0 0 0 0 0 0 0 0 0 0 0 0 0 0 0.1 0"/><feBlend in2="effect1_dropShadow_8358_225748" mode="normal" result="effect2_dropShadow_8358_225748"/><feBlend in="SourceGraphic" in2="effect2_dropShadow_8358_225748" mode="normal" result="shape"/></filter><g filter="url(#a)"><circle cx="24" cy="21" fill="#212121" r="16"/><g fill="#fff"><path d="m15 18h3v7h-3z"/><path d="m13 15h22v2h-22z"/><path d="m24 9 9 5h-18z"/><path d="m13 28h22v2h-22z"/><path d="m14 26h20v1h-20z"/><path d="m20 18h3v7h-3z"/><path d="m25 18h3v7h-3z"/><path d="m30 18h3v7h-3z"/><path d="m33 8.5c0 2.4853-2 4.5-2 4.5s-2-2.0147-2-4.5c0-2.48528 2-4.5 2-4.5s2 2.01472 2 4.5z"/><path d="m39.5 17c-2.4853 0-4.5-2-4.5-2s2.0147-2 4.5-2 4.5 2 4.5 2-2.0147 2-4.5 2z"/><path d="m39.5962 13.2322c-1.7574 1.7574-4.5962 1.7678-4.5962 1.7678s.0104-2.8388 1.7678-4.5962c1.7573-1.75735 4.5962-1.76776 4.5962-1.76776s-.0104 2.83886-1.7678 4.59616z"/></g></g></svg>